<svg width="16" height="16" viewBox="0 0 16 16" fill="none" xmlns="http://www.w3.org/2000/svg">
<path d="M11.3333 13.9998C11.5101 13.9998 11.6796 13.9295 11.8047 13.8045C11.9297 13.6795 11.9999 13.5099 11.9999 13.3331V9.76644C11.9999 9.46177 12.2106 9.20378 12.4846 9.07244C13.0519 8.80181 13.5054 8.33947 13.765 7.76703C14.0246 7.19459 14.0737 6.54884 13.9035 5.94375C13.7334 5.33865 13.355 4.81311 12.8351 4.45987C12.3151 4.10663 11.6872 3.9484 11.0619 4.01311C10.8044 3.41458 10.3772 2.90464 9.83298 2.54633C9.28878 2.18803 8.6515 1.99707 7.99993 1.99707C7.34837 1.99707 6.71109 2.18803 6.16689 2.54633C5.62268 2.90464 5.19542 3.41458 4.93793 4.01311C4.31299 3.94886 3.68542 4.10731 3.16589 4.46053C2.64635 4.81376 2.26821 5.33907 2.09812 5.94384C1.92804 6.54862 1.97694 7.19403 2.2362 7.76628C2.49547 8.33852 2.94844 8.80086 3.51527 9.07178C3.78927 9.20378 3.99993 9.46178 3.99993 9.76578V13.3331C3.99993 13.5099 4.07017 13.6795 4.19519 13.8045C4.32022 13.9295 4.48979 13.9998 4.6666 13.9998H11.3333Z" stroke="#FF8904" stroke-width="1.33333" stroke-linecap="round" stroke-linejoin="round"/>
<path d="M4 11.3335H12" stroke="#FF8904" stroke-width="1.33333" stroke-linecap="round" stroke-linejoin="round"/>
</svg>
