<svg width="20" height="20" viewBox="0 0 20 20" fill="none" xmlns="http://www.w3.org/2000/svg">
<path d="M10 18.3333V10.8333" stroke="#99A1AF" stroke-width="1.66667" stroke-linecap="round" stroke-linejoin="round"/>
<path d="M12.6414 1.84177C12.849 1.72573 13.0828 1.66479 13.3206 1.66479C13.5584 1.66479 13.7922 1.72573 13.9998 1.84177L17.4998 3.80844C17.7476 3.94861 17.9539 4.15207 18.0973 4.39805C18.2408 4.64402 18.3164 4.92368 18.3164 5.20844C18.3164 5.4932 18.2408 5.77286 18.0973 6.01883C17.9539 6.2648 17.7476 6.46827 17.4998 6.60844L7.34977 12.3251C7.1416 12.4438 6.90609 12.5063 6.66644 12.5063C6.42679 12.5063 6.19127 12.4438 5.9831 12.3251L2.49977 10.3584C2.2519 10.2183 2.04568 10.0148 1.90219 9.76883C1.75871 9.52286 1.68311 9.2432 1.68311 8.95844C1.68311 8.67368 1.75871 8.39402 1.90219 8.14805C2.04568 7.90207 2.2519 7.69861 2.49977 7.55844L12.6414 1.84177Z" stroke="#99A1AF" stroke-width="1.66667" stroke-linecap="round" stroke-linejoin="round"/>
<path d="M16.6668 10.8333V14.0583C16.6672 14.3728 16.5811 14.6814 16.4179 14.9503C16.2548 15.2192 16.0209 15.4382 15.7418 15.5833L10.7418 18.1499C10.5127 18.269 10.2583 18.3311 10.0002 18.3311C9.74198 18.3311 9.48759 18.269 9.2585 18.1499L4.2585 15.5833C3.9794 15.4382 3.74552 15.2192 3.5824 14.9503C3.41927 14.6814 3.33317 14.3728 3.3335 14.0583V10.8333" stroke="#99A1AF" stroke-width="1.66667" stroke-linecap="round" stroke-linejoin="round"/>
<path d="M17.4998 10.3583C17.7476 10.2181 17.9539 10.0147 18.0973 9.76868C18.2408 9.52271 18.3164 9.24305 18.3164 8.95829C18.3164 8.67353 18.2408 8.39387 18.0973 8.1479C17.9539 7.90193 17.7476 7.69846 17.4998 7.55829L7.3581 1.83329C7.15134 1.71488 6.91721 1.65259 6.67894 1.65259C6.44067 1.65259 6.20654 1.71488 5.99977 1.83329L2.49977 3.80829C2.2519 3.94846 2.04568 4.15193 1.90219 4.3979C1.75871 4.64387 1.68311 4.92353 1.68311 5.20829C1.68311 5.49305 1.75871 5.77271 1.90219 6.01868C2.04568 6.26466 2.2519 6.46812 2.49977 6.60829L12.6498 12.325C12.8564 12.4437 13.0906 12.5062 13.3289 12.5062C13.5673 12.5062 13.8014 12.4437 14.0081 12.325L17.4998 10.3583Z" stroke="#99A1AF" stroke-width="1.66667" stroke-linecap="round" stroke-linejoin="round"/>
</svg>
